<svg version="1.1" viewBox="0.0 0.0 664.5853018372703 100.0" fill="none" stroke="none" stroke-linecap="square" stroke-miterlimit="10" xmlns:xlink="http://www.w3.org/1999/xlink" xmlns="http://www.w3.org/2000/svg"><clipPath id="p.0"><path d="m0 0l664.5853 0l0 100.0l-664.5853 0l0 -100.0z" clip-rule="nonzero"/></clipPath><g clip-path="url(#p.0)"><path fill="#000000" fill-opacity="0.0" d="m0 0l664.5853 0l0 100.0l-664.5853 0z" fill-rule="evenodd"/><path fill="#ffffff" d="m0.27690288 7.03937l664.0315 0l0 85.921265l-664.0315 0z" fill-rule="evenodd"/><path stroke="#000000" stroke-width="1.0" stroke-linejoin="round" stroke-linecap="butt" d="m0.27690288 7.03937l664.0315 0l0 85.921265l-664.0315 0z" fill-rule="evenodd"/><path fill="#000000" fill-opacity="0.0" d="m513.81866 26.738846l24.661377 0" fill-rule="evenodd"/><path stroke="#000000" stroke-width="1.0" stroke-linejoin="round" stroke-linecap="butt" d="m513.81866 26.738846l18.661377 0" fill-rule="evenodd"/><path fill="#000000" stroke="#000000" stroke-width="1.0" stroke-linecap="butt" d="m532.48004 28.390577l4.538147 -1.6517315l-4.538147 -1.6517334z" fill-rule="evenodd"/><path fill="#000000" fill-opacity="0.0" d="m517.11127 73.27434l21.385803 0" fill-rule="evenodd"/><path stroke="#000000" stroke-width="1.0" stroke-linejoin="round" stroke-linecap="butt" d="m517.11127 73.27434l15.385803 0" fill-rule="evenodd"/><path fill="#000000" stroke="#000000" stroke-width="1.0" stroke-linecap="butt" d="m532.4971 74.92607l4.538086 -1.6517334l-4.538086 -1.6517334z" fill-rule="evenodd"/><path fill="#000000" fill-opacity="0.0" d="m550.6875 60.786148l0 -21.574802" fill-rule="evenodd"/><path stroke="#000000" stroke-width="1.0" stroke-linejoin="round" stroke-linecap="butt" d="m550.6875 60.78615l0 -17.784805" fill-rule="evenodd"/><path fill="#000000" stroke="#000000" stroke-width="1.0" stroke-linecap="butt" d="m549.0425 43.001347l0 -3.289997l3.290039 0l0 3.289997l-3.290039 0z" fill-rule="nonzero"/><path fill="#000000" fill-opacity="0.0" d="m562.8922 26.738846l21.984253 0" fill-rule="evenodd"/><path stroke="#000000" stroke-width="1.0" stroke-linejoin="round" stroke-linecap="butt" d="m562.8922 26.738846l15.984253 0" fill-rule="evenodd"/><path fill="#000000" stroke="#000000" stroke-width="1.0" stroke-linecap="butt" d="m578.87646 28.390577l4.538086 -1.6517315l-4.538086 -1.6517334z" fill-rule="evenodd"/><path fill="#000000" fill-opacity="0.0" d="m562.8922 73.27434l21.984253 0" fill-rule="evenodd"/><path stroke="#000000" stroke-width="1.0" stroke-linejoin="round" stroke-linecap="butt" d="m562.8922 73.27434l18.194275 0" fill-rule="evenodd"/><path fill="#000000" stroke="#000000" stroke-width="1.0" stroke-linecap="butt" d="m581.0865 71.62934l3.289978 0l0 3.290001l-3.289978 0l0 -3.290001z" fill-rule="nonzero"/><path fill="#000000" fill-opacity="0.0" d="m605.72107 35.56933l25.574768 14.677166" fill-rule="evenodd"/><path stroke="#000000" stroke-width="1.0" stroke-linejoin="round" stroke-linecap="butt" d="m605.72107 35.56933l20.37085 11.690674" fill-rule="evenodd"/><path fill="#000000" stroke="#000000" stroke-width="1.0" stroke-linecap="butt" d="m625.2698 48.692585l4.7581177 0.82624817l-3.1138306 -3.6914139z" fill-rule="evenodd"/><path fill="#000000" fill-opacity="0.0" d="m605.72107 64.443855l25.574768 -14.204723" fill-rule="evenodd"/><path stroke="#000000" stroke-width="1.0" stroke-linejoin="round" stroke-linecap="butt" d="m605.72107 64.443855l20.329529 -11.291412" fill-rule="evenodd"/><path fill="#000000" stroke="#000000" stroke-width="1.0" stroke-linecap="butt" d="m626.8526 54.596397l3.1652222 -3.647438l-4.769226 0.7595253z" fill-rule="evenodd"/><path fill="#000000" fill-opacity="0.0" d="m201.43295 14.23622l262.70865 0l0 71.52756l-262.70865 0z" fill-rule="evenodd"/><path fill="#000000" d="m226.95682 69.2l0 -38.171875l11.53125 0l6.921875 26.03125l6.84375 -26.03125l11.5625 0l0 38.171875l-7.15625 0l0 -30.046875l-7.578125 30.046875l-7.421875 0l-7.546875 -30.046875l0 30.046875l-7.15625 0zm44.282135 0l0 -38.171875l7.71875 0l0 38.171875l-7.71875 0zm32.816254 -14.03125l0 -6.4375l16.609375 0l0 15.203125q-2.421875 2.34375 -7.015625 4.140625q-4.59375 1.78125 -9.3125 1.78125q-5.984375 0 -10.4375 -2.515625q-4.453125 -2.515625 -6.703125 -7.1875q-2.234375 -4.671875 -2.234375 -10.171875q0 -5.96875 2.5 -10.59375q2.5 -4.640625 7.328125 -7.109375q3.671875 -1.90625 9.140625 -1.90625q7.09375 0 11.09375 2.984375q4.0 2.984375 5.140625 8.25l-7.65625 1.421875q-0.796875 -2.8125 -3.03125 -4.4375q-2.21875 -1.625 -5.546875 -1.625q-5.0625 0 -8.046875 3.203125q-2.96875 3.203125 -2.96875 9.5q0 6.796875 3.015625 10.203125q3.015625 3.390625 7.921875 3.390625q2.421875 0 4.84375 -0.953125q2.4375 -0.953125 4.1875 -2.296875l0 -4.84375l-8.828125 0zm23.792847 14.03125l0 -38.171875l7.5 0l15.625 25.484375l0 -25.484375l7.15625 0l0 38.171875l-7.71875 0l-15.390625 -24.890625l0 24.890625l-7.171875 0zm36.871246 -18.859375q0 -5.828125 1.75 -9.78125q1.296875 -2.921875 3.546875 -5.234375q2.265625 -2.3125 4.9375 -3.4375q3.578125 -1.515625 8.234375 -1.515625q8.4375 0 13.5 5.234375q5.0625 5.234375 5.0625 14.5625q0 9.234375 -5.03125 14.46875q-5.015625 5.21875 -13.421875 5.21875q-8.515625 0 -13.546875 -5.1875q-5.03125 -5.203125 -5.03125 -14.328125zm7.953125 -0.25q0 6.484375 2.984375 9.828125q3.0 3.34375 7.609375 3.34375q4.609375 0 7.5625 -3.3125q2.953125 -3.328125 2.953125 -9.96875q0 -6.5625 -2.875 -9.78125q-2.875 -3.234375 -7.640625 -3.234375q-4.765625 0 -7.6875 3.265625q-2.90625 3.265625 -2.90625 9.859375zm35.167816 19.109375l0 -38.171875l7.5 0l15.625 25.484375l0 -25.484375l7.15625 0l0 38.171875l-7.71875 0l-15.390625 -24.890625l0 24.890625l-7.171875 0z" fill-rule="nonzero"/><path fill="#e06666" d="m489.4092 26.738846l0 0c0 -6.8970375 5.4642334 -12.48819 12.204712 -12.48819l0 0c3.236908 0 6.341217 1.3157158 8.630035 3.6577053c2.2888184 2.3419895 3.574707 5.5184097 3.574707 8.830484l0 0c0 6.8970375 -5.464264 12.48819 -12.204742 12.48819l0 0c-6.7404785 0 -12.204712 -5.591152 -12.204712 -12.48819z" fill-rule="evenodd"/><path stroke="#000000" stroke-width="1.0" stroke-linejoin="round" stroke-linecap="butt" d="m489.4092 26.738846l0 0c0 -6.8970375 5.4642334 -12.48819 12.204712 -12.48819l0 0c3.236908 0 6.341217 1.3157158 8.630035 3.6577053c2.2888184 2.3419895 3.574707 5.5184097 3.574707 8.830484l0 0c0 6.8970375 -5.464264 12.48819 -12.204742 12.48819l0 0c-6.7404785 0 -12.204712 -5.591152 -12.204712 -12.48819z" fill-rule="evenodd"/><path fill="#e06666" d="m492.7018 73.27434l0 0c0 -6.8970337 5.4642334 -12.48819 12.204712 -12.48819l0 0c3.236908 0 6.341217 1.3157196 8.630035 3.6577072c2.2888184 2.3419876 3.574707 5.5184097 3.574707 8.8304825l0 0c0 6.8970337 -5.464264 12.48819 -12.204742 12.48819l0 0c-6.7404785 0 -12.204712 -5.591156 -12.204712 -12.48819z" fill-rule="evenodd"/><path stroke="#000000" stroke-width="1.0" stroke-linejoin="round" stroke-linecap="butt" d="m492.7018 73.27434l0 0c0 -6.8970337 5.4642334 -12.48819 12.204712 -12.48819l0 0c3.236908 0 6.341217 1.3157196 8.630035 3.6577072c2.2888184 2.3419876 3.574707 5.5184097 3.574707 8.8304825l0 0c0 6.8970337 -5.464264 12.48819 -12.204742 12.48819l0 0c-6.7404785 0 -12.204712 -5.591156 -12.204712 -12.48819z" fill-rule="evenodd"/><path fill="#ffd966" d="m538.4828 26.738846l0 0c0 -6.8970375 5.4642334 -12.48819 12.204712 -12.48819l0 0c3.2369385 0 6.3412476 1.3157158 8.630066 3.6577053c2.2888184 2.3419895 3.574646 5.5184097 3.574646 8.830484l0 0c0 6.8970375 -5.4642334 12.48819 -12.204712 12.48819l0 0c-6.7404785 0 -12.204712 -5.591152 -12.204712 -12.48819z" fill-rule="evenodd"/><path stroke="#000000" stroke-width="1.0" stroke-linejoin="round" stroke-linecap="butt" d="m538.4828 26.738846l0 0c0 -6.8970375 5.4642334 -12.48819 12.204712 -12.48819l0 0c3.2369385 0 6.3412476 1.3157158 8.630066 3.6577053c2.2888184 2.3419895 3.574646 5.5184097 3.574646 8.830484l0 0c0 6.8970375 -5.4642334 12.48819 -12.204712 12.48819l0 0c-6.7404785 0 -12.204712 -5.591152 -12.204712 -12.48819z" fill-rule="evenodd"/><path fill="#3c78d8" d="m584.8863 26.738846l0 0c0 -6.8970375 5.4642334 -12.48819 12.204712 -12.48819l0 0c3.2368774 0 6.3412476 1.3157158 8.630066 3.6577053c2.2888184 2.3419895 3.574646 5.5184097 3.574646 8.830484l0 0c0 6.8970375 -5.4642334 12.48819 -12.204712 12.48819l0 0c-6.7404785 0 -12.204712 -5.591152 -12.204712 -12.48819z" fill-rule="evenodd"/><path stroke="#000000" stroke-width="1.0" stroke-linejoin="round" stroke-linecap="butt" d="m584.8863 26.738846l0 0c0 -6.8970375 5.4642334 -12.48819 12.204712 -12.48819l0 0c3.2368774 0 6.3412476 1.3157158 8.630066 3.6577053c2.2888184 2.3419895 3.574646 5.5184097 3.574646 8.830484l0 0c0 6.8970375 -5.4642334 12.48819 -12.204712 12.48819l0 0c-6.7404785 0 -12.204712 -5.591152 -12.204712 -12.48819z" fill-rule="evenodd"/><path fill="#3c78d8" d="m584.8863 73.27434l0 0c0 -6.8970337 5.4642334 -12.48819 12.204712 -12.48819l0 0c3.2368774 0 6.3412476 1.3157196 8.630066 3.6577072c2.2888184 2.3419876 3.574646 5.5184097 3.574646 8.8304825l0 0c0 6.8970337 -5.4642334 12.48819 -12.204712 12.48819l0 0c-6.7404785 0 -12.204712 -5.591156 -12.204712 -12.48819z" fill-rule="evenodd"/><path stroke="#000000" stroke-width="1.0" stroke-linejoin="round" stroke-linecap="butt" d="m584.8863 73.27434l0 0c0 -6.8970337 5.4642334 -12.48819 12.204712 -12.48819l0 0c3.2368774 0 6.3412476 1.3157196 8.630066 3.6577072c2.2888184 2.3419876 3.574646 5.5184097 3.574646 8.8304825l0 0c0 6.8970337 -5.4642334 12.48819 -12.204712 12.48819l0 0c-6.7404785 0 -12.204712 -5.591156 -12.204712 -12.48819z" fill-rule="evenodd"/><path fill="#e06666" d="m538.4828 73.27434l0 0c0 -6.8970337 5.4642334 -12.48819 12.204712 -12.48819l0 0c3.2369385 0 6.3412476 1.3157196 8.630066 3.6577072c2.2888184 2.3419876 3.574646 5.5184097 3.574646 8.8304825l0 0c0 6.8970337 -5.4642334 12.48819 -12.204712 12.48819l0 0c-6.7404785 0 -12.204712 -5.591156 -12.204712 -12.48819z" fill-rule="evenodd"/><path stroke="#000000" stroke-width="1.0" stroke-linejoin="round" stroke-linecap="butt" d="m538.4828 73.27434l0 0c0 -6.8970337 5.4642334 -12.48819 12.204712 -12.48819l0 0c3.2369385 0 6.3412476 1.3157196 8.630066 3.6577072c2.2888184 2.3419876 3.574646 5.5184097 3.574646 8.8304825l0 0c0 6.8970337 -5.4642334 12.48819 -12.204712 12.48819l0 0c-6.7404785 0 -12.204712 -5.591156 -12.204712 -12.48819z" fill-rule="evenodd"/><path fill="#3c78d8" d="m631.2902 50.247696l0 0c0 -6.8970375 5.4642334 -12.48819 12.204773 -12.48819l0 0c3.2368774 0 6.3411865 1.3157158 8.630005 3.6577072c2.2888184 2.3419914 3.574707 5.5184097 3.574707 8.8304825l0 0c0 6.8970375 -5.4642334 12.48819 -12.204712 12.48819l0 0c-6.7405396 0 -12.204773 -5.591152 -12.204773 -12.48819z" fill-rule="evenodd"/><path stroke="#000000" stroke-width="1.0" stroke-linejoin="round" stroke-linecap="butt" d="m631.2902 50.247696l0 0c0 -6.8970375 5.4642334 -12.48819 12.204773 -12.48819l0 0c3.2368774 0 6.3411865 1.3157158 8.630005 3.6577072c2.2888184 2.3419914 3.574707 5.5184097 3.574707 8.8304825l0 0c0 6.8970375 -5.4642334 12.48819 -12.204712 12.48819l0 0c-6.7405396 0 -12.204773 -5.591152 -12.204773 -12.48819z" fill-rule="evenodd"/><path fill="#000000" d="m14.128609 54.876114l66.48819 0l0 5.322838l-66.48819 0z" fill-rule="evenodd"/><path stroke="#000000" stroke-width="1.0" stroke-linejoin="round" stroke-linecap="butt" d="m14.128609 54.876114l66.48819 0l0 5.322838l-66.48819 0z" fill-rule="evenodd"/><path fill="#000000" d="m34.097115 39.80538l66.48819 0l0 5.322834l-66.48819 0z" fill-rule="evenodd"/><path stroke="#000000" stroke-width="1.0" stroke-linejoin="round" stroke-linecap="butt" d="m34.097115 39.80538l66.48819 0l0 5.322834l-66.48819 0z" fill-rule="evenodd"/><path fill="#000000" d="m8.3307085 69.94685l66.48819 0l0 5.32283l-66.48819 0z" fill-rule="evenodd"/><path stroke="#000000" stroke-width="1.0" stroke-linejoin="round" stroke-linecap="butt" d="m8.3307085 69.94685l66.48819 0l0 5.32283l-66.48819 0z" fill-rule="evenodd"/><path fill="#000000" d="m95.620735 24.733334l66.48818 0l0 5.322834l-66.48818 0z" fill-rule="evenodd"/><path stroke="#000000" stroke-width="1.0" stroke-linejoin="round" stroke-linecap="butt" d="m95.620735 24.733334l66.48818 0l0 5.322834l-66.48818 0z" fill-rule="evenodd"/><path fill="#000000" d="m17.721785 24.732021l66.48819 0l0 5.322834l-66.48819 0z" fill-rule="evenodd"/><path stroke="#000000" stroke-width="1.0" stroke-linejoin="round" stroke-linecap="butt" d="m17.721785 24.732021l66.48819 0l0 5.322834l-66.48819 0z" fill-rule="evenodd"/><path fill="#000000" d="m90.43307 54.876114l66.4882 0l0 5.322838l-66.4882 0z" fill-rule="evenodd"/><path stroke="#000000" stroke-width="1.0" stroke-linejoin="round" stroke-linecap="butt" d="m90.43307 54.876114l66.4882 0l0 5.322838l-66.4882 0z" fill-rule="evenodd"/><path fill="#000000" d="m109.12336 39.80407l66.48818 0l0 5.322834l-66.48818 0z" fill-rule="evenodd"/><path stroke="#000000" stroke-width="1.0" stroke-linejoin="round" stroke-linecap="butt" d="m109.12336 39.80407l66.48818 0l0 5.322834l-66.48818 0z" fill-rule="evenodd"/><path fill="#000000" d="m79.31233 69.94685l66.48819 0l0 5.32283l-66.48819 0z" fill-rule="evenodd"/><path stroke="#000000" stroke-width="1.0" stroke-linejoin="round" stroke-linecap="butt" d="m79.31233 69.94685l66.48819 0l0 5.32283l-66.48819 0z" fill-rule="evenodd"/></g></svg>