<?xml version="1.0" standalone="no"?>
<!DOCTYPE svg PUBLIC "-//W3C//DTD SVG 20010904//EN"
 "http://www.w3.org/TR/2001/REC-SVG-20010904/DTD/svg10.dtd">
<svg version="1.0" xmlns="http://www.w3.org/2000/svg"
 width="802.000000pt" height="802.000000pt" viewBox="0 0 802.000000 802.000000"
 preserveAspectRatio="xMidYMid meet">
<metadata>
Created by potrace 1.11, written by Peter Selinger 2001-2013
</metadata>
<g transform="translate(0.000000,802.000000) scale(0.100000,-0.100000)"
fill="#000000" stroke="none">
<path d="M3988 7906 c-16 -5 -28 -13 -28 -18 0 -4 -7 -8 -16 -8 -9 0 -28 -7
-42 -15 -25 -13 -121 -59 -294 -139 -40 -18 -113 -53 -163 -76 -49 -23 -117
-55 -150 -70 -136 -63 -244 -114 -315 -148 -41 -20 -77 -36 -80 -37 -3 -1 -29
-13 -59 -28 -30 -15 -61 -27 -68 -27 -7 0 -13 -4 -13 -10 0 -5 -5 -10 -11 -10
-7 0 -55 -21 -108 -47 -53 -25 -100 -48 -106 -49 -5 -1 -66 -29 -135 -62 -69
-33 -150 -71 -180 -85 -58 -26 -163 -76 -320 -150 -52 -24 -126 -59 -165 -77
-160 -74 -195 -90 -290 -135 -135 -64 -258 -122 -325 -152 -30 -14 -109 -51
-175 -83 -66 -31 -153 -71 -192 -90 -40 -18 -73 -36 -74 -39 -1 -3 -2 -1054
-3 -2336 -1 -2317 -1 -2330 19 -2351 11 -12 43 -31 70 -42 28 -11 109 -48 180
-82 72 -34 150 -71 175 -82 25 -11 88 -41 140 -65 52 -25 123 -58 156 -73 34
-16 100 -47 148 -69 47 -23 90 -41 96 -41 5 0 10 -4 10 -10 0 -5 7 -10 16 -10
9 0 33 -9 53 -19 20 -11 74 -38 121 -59 47 -22 126 -59 175 -82 50 -23 119
-56 155 -72 36 -17 101 -48 145 -68 135 -64 230 -107 240 -110 6 -1 29 -13 53
-26 23 -13 49 -24 57 -24 8 0 15 -4 15 -10 0 -5 4 -10 9 -10 6 0 45 -16 88
-37 43 -20 80 -37 83 -38 5 -1 66 -30 221 -103 46 -22 118 -55 159 -75 41 -19
114 -53 163 -76 48 -22 126 -59 175 -82 48 -23 112 -53 142 -67 30 -14 57 -27
60 -27 3 -1 50 -23 105 -49 55 -26 107 -48 115 -48 8 -1 49 15 90 34 120 57
249 118 328 154 139 65 218 102 307 145 50 23 92 43 95 43 3 1 25 11 50 23 25
12 90 42 145 68 55 26 129 61 165 78 36 18 67 32 70 33 3 0 41 17 85 38 125
60 351 166 460 216 33 15 101 47 150 70 50 23 115 54 145 68 30 14 58 25 63
24 4 -1 7 2 7 8 0 5 9 10 20 10 11 0 20 5 20 10 0 6 5 10 11 10 6 0 59 23 118
51 58 28 111 52 116 54 6 1 62 27 125 57 63 31 138 66 165 78 28 12 97 45 155
72 58 28 134 63 170 80 36 17 115 54 175 83 l111 53 -2 2333 c0 1284 -2 2339
-3 2345 0 7 -18 20 -38 29 -21 10 -74 35 -119 56 -44 22 -86 39 -92 39 -7 0
-12 5 -12 10 0 6 -6 10 -13 10 -7 0 -39 13 -72 29 -33 16 -89 43 -125 59 -109
49 -283 132 -323 152 -22 11 -45 20 -53 20 -8 0 -14 5 -14 10 0 6 -9 10 -20
10 -11 0 -20 5 -20 10 0 6 -3 9 -7 8 -5 -2 -33 9 -63 23 -30 15 -89 42 -130
61 -41 19 -105 49 -142 67 -37 17 -71 31 -76 31 -5 0 -15 7 -22 15 -6 8 -15
14 -18 13 -7 -2 -28 7 -220 98 -63 30 -115 54 -117 54 -1 0 -63 29 -136 64
-74 35 -159 75 -189 89 -30 14 -104 48 -165 77 -60 28 -130 61 -155 72 -25 11
-105 49 -178 84 -74 35 -135 64 -137 64 -2 0 -54 24 -117 54 -214 102 -401
189 -408 191 -3 0 -34 15 -70 32 -84 40 -90 41 -122 29z"/>
</g>
</svg>
