<svg version="1.1" viewBox="0.0 0.0 338.87664041994753 401.09711286089237" fill="none" stroke="none" stroke-linecap="square" stroke-miterlimit="10" xmlns:xlink="http://www.w3.org/1999/xlink" xmlns="http://www.w3.org/2000/svg"><clipPath id="p.0"><path d="m0 0l338.87665 0l0 401.0971l-338.87665 0l0 -401.0971z" clip-rule="nonzero"/></clipPath><g clip-path="url(#p.0)"><path fill="#000000" fill-opacity="0.0" d="m0 0l338.87665 0l0 401.0971l-338.87665 0z" fill-rule="evenodd"/><path fill="#ffffff" d="m169.99344 7.2401576l165.17978 77.32336l0 231.9701l-165.17978 77.323364l-165.1798 -77.323364l0 -231.9701z" fill-rule="evenodd"/><path stroke="#000000" stroke-width="4.0" stroke-linejoin="round" stroke-linecap="butt" d="m169.99344 7.2401576l165.17978 77.32336l0 231.9701l-165.17978 77.323364l-165.1798 -77.323364l0 -231.9701z" fill-rule="evenodd"/><path fill="#000000" d="m136.19292 38.89501l66.48819 0l0 5.322834l-66.48819 0z" fill-rule="evenodd"/><path stroke="#000000" stroke-width="1.0" stroke-linejoin="round" stroke-linecap="butt" d="m136.19292 38.89501l66.48819 0l0 5.322834l-66.48819 0z" fill-rule="evenodd"/><path fill="#000000" d="m157.16536 69.03911l66.48819 0l0 5.32283l-66.48819 0z" fill-rule="evenodd"/><path stroke="#000000" stroke-width="1.0" stroke-linejoin="round" stroke-linecap="butt" d="m157.16536 69.03911l66.48819 0l0 5.32283l-66.48819 0z" fill-rule="evenodd"/><path fill="#000000" d="m79.2664 69.037796l66.48819 0l0 5.32283l-66.48819 0z" fill-rule="evenodd"/><path stroke="#000000" stroke-width="1.0" stroke-linejoin="round" stroke-linecap="butt" d="m79.2664 69.037796l66.48819 0l0 5.32283l-66.48819 0z" fill-rule="evenodd"/><path fill="#000000" fill-opacity="0.0" d="m38.08399 150.40683l262.70868 0l0 71.52756l-262.70868 0z" fill-rule="evenodd"/><path fill="#000000" d="m63.60786 205.3706l0 -38.171875l11.531254 0l6.921875 26.03125l6.84375 -26.03125l11.5625 0l0 38.171875l-7.15625 0l0 -30.046875l-7.578125 30.046875l-7.421875 0l-7.546875 -30.046875l0 30.046875l-7.156254 0zm44.282124 0l0 -38.171875l7.71875 0l0 38.171875l-7.71875 0zm32.81627 -14.03125l0 -6.4375l16.609375 0l0 15.203125q-2.421875 2.34375 -7.015625 4.140625q-4.59375 1.78125 -9.3125 1.78125q-5.984375 0 -10.4375 -2.515625q-4.453125 -2.515625 -6.703125 -7.1875q-2.234375 -4.671875 -2.234375 -10.171875q0 -5.96875 2.5 -10.59375q2.5 -4.640625 7.328125 -7.109375q3.671875 -1.90625 9.140625 -1.90625q7.09375 0 11.09375 2.984375q4.0 2.984375 5.140625 8.25l-7.65625 1.421875q-0.796875 -2.8125 -3.03125 -4.4375q-2.21875 -1.625 -5.546875 -1.625q-5.0625 0 -8.046875 3.203125q-2.96875 3.203125 -2.96875 9.5q0 6.796875 3.015625 10.203125q3.015625 3.390625 7.921875 3.390625q2.421875 0 4.84375 -0.953125q2.4375 -0.953125 4.1875 -2.296875l0 -4.84375l-8.828125 0zm23.792831 14.03125l0 -38.171875l7.5 0l15.625 25.484375l0 -25.484375l7.15625 0l0 38.171875l-7.71875 0l-15.390625 -24.890625l0 24.890625l-7.171875 0zm36.871246 -18.859375q0 -5.828125 1.75 -9.78125q1.296875 -2.921875 3.546875 -5.234375q2.265625 -2.3125 4.9375 -3.4375q3.578125 -1.515625 8.234375 -1.515625q8.4375 0 13.5 5.234375q5.0625 5.234375 5.0625 14.5625q0 9.234375 -5.03125 14.46875q-5.015625 5.21875 -13.421875 5.21875q-8.515625 0 -13.546875 -5.1875q-5.03125 -5.203125 -5.03125 -14.328125zm7.953125 -0.25q0 6.484375 2.984375 9.828125q3.0 3.34375 7.609375 3.34375q4.609375 0 7.5625 -3.3125q2.953125 -3.328125 2.953125 -9.96875q0 -6.5625 -2.875 -9.78125q-2.875 -3.234375 -7.640625 -3.234375q-4.765625 0 -7.6875 3.265625q-2.90625 3.265625 -2.90625 9.859375zm35.167816 19.109375l0 -38.171875l7.5 0l15.625 25.484375l0 -25.484375l7.15625 0l0 38.171875l-7.71875 0l-15.390625 -24.890625l0 24.890625l-7.171875 0z" fill-rule="nonzero"/><path fill="#000000" d="m61.754585 267.2533l0 0c0 -6.897064 5.464241 -12.488205 12.204727 -12.488205l0 0c3.2368927 0 6.3412094 1.3157196 8.630043 3.6576996c2.288826 2.3420105 3.5746765 5.518402 3.5746765 8.830505l0 0c0 6.8970337 -5.464241 12.488159 -12.20472 12.488159l0 0c-6.740486 0 -12.204727 -5.5911255 -12.204727 -12.488159z" fill-rule="evenodd"/><path stroke="#000000" stroke-width="1.0" stroke-linejoin="round" stroke-linecap="butt" d="m61.754585 267.2533l0 0c0 -6.897064 5.464241 -12.488205 12.204727 -12.488205l0 0c3.2368927 0 6.3412094 1.3157196 8.630043 3.6576996c2.288826 2.3420105 3.5746765 5.518402 3.5746765 8.830505l0 0c0 6.8970337 -5.464241 12.488159 -12.20472 12.488159l0 0c-6.740486 0 -12.204727 -5.5911255 -12.204727 -12.488159z" fill-rule="evenodd"/><path fill="#000000" d="m110.83046 267.2533l0 0c0 -6.897064 5.464241 -12.488205 12.204727 -12.488205l0 0c3.2368927 0 6.341217 1.3157196 8.630035 3.6576996c2.2888336 2.3420105 3.5746918 5.518402 3.5746918 8.830505l0 0c0 6.8970337 -5.4642487 12.488159 -12.204727 12.488159l0 0c-6.740486 0 -12.204727 -5.5911255 -12.204727 -12.488159z" fill-rule="evenodd"/><path stroke="#000000" stroke-width="1.0" stroke-linejoin="round" stroke-linecap="butt" d="m110.83046 267.2533l0 0c0 -6.897064 5.464241 -12.488205 12.204727 -12.488205l0 0c3.2368927 0 6.341217 1.3157196 8.630035 3.6576996c2.2888336 2.3420105 3.5746918 5.518402 3.5746918 8.830505l0 0c0 6.8970337 -5.4642487 12.488159 -12.204727 12.488159l0 0c-6.740486 0 -12.204727 -5.5911255 -12.204727 -12.488159z" fill-rule="evenodd"/><path fill="#e06666" d="m114.12307 313.7888l0 0c0 -6.897064 5.464241 -12.48819 12.204727 -12.48819l0 0c3.236885 0 6.3412094 1.3157043 8.630043 3.6576843c2.2888336 2.3420105 3.5746765 5.5184326 3.5746765 8.830505l0 0c0 6.8970337 -5.4642334 12.48819 -12.20472 12.48819l0 0c-6.740486 0 -12.204727 -5.591156 -12.204727 -12.48819z" fill-rule="evenodd"/><path stroke="#000000" stroke-width="1.0" stroke-linejoin="round" stroke-linecap="butt" d="m114.12307 313.7888l0 0c0 -6.897064 5.464241 -12.48819 12.204727 -12.48819l0 0c3.236885 0 6.3412094 1.3157043 8.630043 3.6576843c2.2888336 2.3420105 3.5746765 5.5184326 3.5746765 8.830505l0 0c0 6.8970337 -5.4642334 12.48819 -12.20472 12.48819l0 0c-6.740486 0 -12.204727 -5.591156 -12.204727 -12.48819z" fill-rule="evenodd"/><path fill="#ffd966" d="m159.90405 267.2533l0 0c0 -6.897064 5.4642334 -12.488205 12.204727 -12.488205l0 0c3.2368927 0 6.341202 1.3157196 8.630035 3.6576996c2.2888336 2.3420105 3.5746765 5.518402 3.5746765 8.830505l0 0c0 6.8970337 -5.4642334 12.488159 -12.204712 12.488159l0 0c-6.740494 0 -12.204727 -5.5911255 -12.204727 -12.488159z" fill-rule="evenodd"/><path stroke="#000000" stroke-width="1.0" stroke-linejoin="round" stroke-linecap="butt" d="m159.90405 267.2533l0 0c0 -6.897064 5.4642334 -12.488205 12.204727 -12.488205l0 0c3.2368927 0 6.341202 1.3157196 8.630035 3.6576996c2.2888336 2.3420105 3.5746765 5.518402 3.5746765 8.830505l0 0c0 6.8970337 -5.4642334 12.488159 -12.204712 12.488159l0 0c-6.740494 0 -12.204727 -5.5911255 -12.204727 -12.488159z" fill-rule="evenodd"/><path fill="#3c78d8" d="m206.30756 267.2533l0 0c0 -6.897064 5.4642334 -12.488205 12.204727 -12.488205l0 0c3.2368927 0 6.341202 1.3157196 8.630035 3.6576996c2.2888336 2.3420105 3.5746765 5.518402 3.5746765 8.830505l0 0c0 6.8970337 -5.4642334 12.488159 -12.204712 12.488159l0 0c-6.740494 0 -12.204727 -5.5911255 -12.204727 -12.488159z" fill-rule="evenodd"/><path stroke="#000000" stroke-width="1.0" stroke-linejoin="round" stroke-linecap="butt" d="m206.30756 267.2533l0 0c0 -6.897064 5.4642334 -12.488205 12.204727 -12.488205l0 0c3.2368927 0 6.341202 1.3157196 8.630035 3.6576996c2.2888336 2.3420105 3.5746765 5.518402 3.5746765 8.830505l0 0c0 6.8970337 -5.4642334 12.488159 -12.204712 12.488159l0 0c-6.740494 0 -12.204727 -5.5911255 -12.204727 -12.488159z" fill-rule="evenodd"/><path fill="#3c78d8" d="m206.30756 313.7888l0 0c0 -6.897064 5.4642334 -12.48819 12.204727 -12.48819l0 0c3.2368927 0 6.341202 1.3157043 8.630035 3.6576843c2.2888336 2.3420105 3.5746765 5.5184326 3.5746765 8.830505l0 0c0 6.8970337 -5.4642334 12.48819 -12.204712 12.48819l0 0c-6.740494 0 -12.204727 -5.591156 -12.204727 -12.48819z" fill-rule="evenodd"/><path stroke="#000000" stroke-width="1.0" stroke-linejoin="round" stroke-linecap="butt" d="m206.30756 313.7888l0 0c0 -6.897064 5.4642334 -12.48819 12.204727 -12.48819l0 0c3.2368927 0 6.341202 1.3157043 8.630035 3.6576843c2.2888336 2.3420105 3.5746765 5.5184326 3.5746765 8.830505l0 0c0 6.8970337 -5.4642334 12.48819 -12.204712 12.48819l0 0c-6.740494 0 -12.204727 -5.591156 -12.204727 -12.48819z" fill-rule="evenodd"/><path fill="#e06666" d="m159.90405 313.7888l0 0c0 -6.897064 5.4642334 -12.48819 12.204727 -12.48819l0 0c3.2368927 0 6.341202 1.3157043 8.630035 3.6576843c2.2888336 2.3420105 3.5746765 5.5184326 3.5746765 8.830505l0 0c0 6.8970337 -5.4642334 12.48819 -12.204712 12.48819l0 0c-6.740494 0 -12.204727 -5.591156 -12.204727 -12.48819z" fill-rule="evenodd"/><path stroke="#000000" stroke-width="1.0" stroke-linejoin="round" stroke-linecap="butt" d="m159.90405 313.7888l0 0c0 -6.897064 5.4642334 -12.48819 12.204727 -12.48819l0 0c3.2368927 0 6.341202 1.3157043 8.630035 3.6576843c2.2888336 2.3420105 3.5746765 5.5184326 3.5746765 8.830505l0 0c0 6.8970337 -5.4642334 12.48819 -12.204712 12.48819l0 0c-6.740494 0 -12.204727 -5.591156 -12.204727 -12.48819z" fill-rule="evenodd"/><path fill="#000000" fill-opacity="0.0" d="m135.23991 267.2533l24.661407 0" fill-rule="evenodd"/><path stroke="#000000" stroke-width="1.0" stroke-linejoin="round" stroke-linecap="butt" d="m135.23991 267.2533l18.661407 0" fill-rule="evenodd"/><path fill="#000000" stroke="#000000" stroke-width="1.0" stroke-linecap="butt" d="m153.90132 268.905l4.538101 -1.6517029l-4.538101 -1.6517334z" fill-rule="evenodd"/><path fill="#000000" fill-opacity="0.0" d="m86.16403 267.2533l24.661423 0" fill-rule="evenodd"/><path stroke="#000000" stroke-width="1.0" stroke-linejoin="round" stroke-linecap="butt" d="m86.16403 267.2533l18.661415 0" fill-rule="evenodd"/><path fill="#000000" stroke="#000000" stroke-width="1.0" stroke-linecap="butt" d="m104.82545 268.905l4.538101 -1.6517029l-4.538101 -1.6517334z" fill-rule="evenodd"/><path fill="#000000" fill-opacity="0.0" d="m138.53252 313.7888l21.385834 0" fill-rule="evenodd"/><path stroke="#000000" stroke-width="1.0" stroke-linejoin="round" stroke-linecap="butt" d="m138.53252 313.7888l15.385834 0" fill-rule="evenodd"/><path fill="#000000" stroke="#000000" stroke-width="1.0" stroke-linecap="butt" d="m153.91835 315.44052l4.538101 -1.6517334l-4.538101 -1.6517334z" fill-rule="evenodd"/><path fill="#000000" fill-opacity="0.0" d="m172.10878 301.3006l0 -21.57483" fill-rule="evenodd"/><path stroke="#000000" stroke-width="1.0" stroke-linejoin="round" stroke-linecap="butt" d="m172.10878 301.3006l0 -17.78482" fill-rule="evenodd"/><path fill="#000000" stroke="#000000" stroke-width="1.0" stroke-linecap="butt" d="m170.46378 283.51578l0 -3.2900085l3.2900085 0l0 3.2900085l-3.2900085 0z" fill-rule="nonzero"/><path fill="#000000" fill-opacity="0.0" d="m184.31349 267.2533l21.984253 0" fill-rule="evenodd"/><path stroke="#000000" stroke-width="1.0" stroke-linejoin="round" stroke-linecap="butt" d="m184.3135 267.2533l15.984253 0" fill-rule="evenodd"/><path fill="#000000" stroke="#000000" stroke-width="1.0" stroke-linecap="butt" d="m200.29776 268.905l4.538101 -1.6517029l-4.538101 -1.6517334z" fill-rule="evenodd"/><path fill="#000000" fill-opacity="0.0" d="m184.31349 313.7888l21.984253 0" fill-rule="evenodd"/><path stroke="#000000" stroke-width="1.0" stroke-linejoin="round" stroke-linecap="butt" d="m184.3135 313.7888l18.194244 0" fill-rule="evenodd"/><path fill="#000000" stroke="#000000" stroke-width="1.0" stroke-linecap="butt" d="m202.50775 312.14377l3.2900085 0l0 3.2900085l-3.2900085 0l0 -3.2900085z" fill-rule="nonzero"/><path fill="#e06666" d="m61.754585 313.7888l0 0c0 -6.897064 5.464241 -12.48819 12.204727 -12.48819l0 0c3.2368927 0 6.3412094 1.3157043 8.630043 3.6576843c2.288826 2.3420105 3.5746765 5.5184326 3.5746765 8.830505l0 0c0 6.8970337 -5.464241 12.48819 -12.20472 12.48819l0 0c-6.740486 0 -12.204727 -5.591156 -12.204727 -12.48819z" fill-rule="evenodd"/><path stroke="#000000" stroke-width="1.0" stroke-linejoin="round" stroke-linecap="butt" d="m61.754585 313.7888l0 0c0 -6.897064 5.464241 -12.48819 12.204727 -12.48819l0 0c3.2368927 0 6.3412094 1.3157043 8.630043 3.6576843c2.288826 2.3420105 3.5746765 5.5184326 3.5746765 8.830505l0 0c0 6.8970337 -5.464241 12.48819 -12.20472 12.48819l0 0c-6.740486 0 -12.204727 -5.591156 -12.204727 -12.48819z" fill-rule="evenodd"/><path fill="#000000" fill-opacity="0.0" d="m86.16403 313.7888l27.968506 0" fill-rule="evenodd"/><path stroke="#000000" stroke-width="1.0" stroke-linejoin="round" stroke-linecap="butt" d="m86.16403 313.7888l21.968506 0" fill-rule="evenodd"/><path fill="#000000" stroke="#000000" stroke-width="1.0" stroke-linecap="butt" d="m108.13254 315.44052l4.5380936 -1.6517334l-4.5380936 -1.6517334z" fill-rule="evenodd"/><path fill="#3c78d8" d="m252.7115 290.76215l0 0c0 -6.897064 5.4642487 -12.48819 12.204727 -12.48819l0 0c3.2368774 0 6.341217 1.3157043 8.630035 3.6576843c2.2888489 2.3420105 3.5746765 5.5184326 3.5746765 8.830505l0 0c0 6.8970337 -5.4642334 12.48819 -12.204712 12.48819l0 0c-6.7404785 0 -12.204727 -5.591156 -12.204727 -12.48819z" fill-rule="evenodd"/><path stroke="#000000" stroke-width="1.0" stroke-linejoin="round" stroke-linecap="butt" d="m252.7115 290.76215l0 0c0 -6.897064 5.4642487 -12.48819 12.204727 -12.48819l0 0c3.2368774 0 6.341217 1.3157043 8.630035 3.6576843c2.2888489 2.3420105 3.5746765 5.5184326 3.5746765 8.830505l0 0c0 6.8970337 -5.4642334 12.48819 -12.204712 12.48819l0 0c-6.7404785 0 -12.204727 -5.591156 -12.204727 -12.48819z" fill-rule="evenodd"/><path fill="#000000" fill-opacity="0.0" d="m227.14232 276.08377l25.574799 14.677155" fill-rule="evenodd"/><path stroke="#000000" stroke-width="1.0" stroke-linejoin="round" stroke-linecap="butt" d="m227.14233 276.08377l20.370865 11.690674" fill-rule="evenodd"/><path fill="#000000" stroke="#000000" stroke-width="1.0" stroke-linecap="butt" d="m246.69106 289.20703l4.758133 0.8262329l-3.1138458 -3.6914062z" fill-rule="evenodd"/><path fill="#000000" fill-opacity="0.0" d="m227.14232 304.95828l25.574799 -14.204712" fill-rule="evenodd"/><path stroke="#000000" stroke-width="1.0" stroke-linejoin="round" stroke-linecap="butt" d="m227.14233 304.95828l20.32956 -11.291412" fill-rule="evenodd"/><path fill="#000000" stroke="#000000" stroke-width="1.0" stroke-linecap="butt" d="m248.27388 295.11084l3.1652374 -3.6474304l-4.7692413 0.7595215z" fill-rule="evenodd"/><path fill="#000000" d="m99.2769 53.96706l66.48819 0l0 5.322834l-66.48819 0z" fill-rule="evenodd"/><path stroke="#000000" stroke-width="1.0" stroke-linejoin="round" stroke-linecap="butt" d="m99.2769 53.96706l66.48819 0l0 5.322834l-66.48819 0z" fill-rule="evenodd"/><path fill="#000000" d="m172.1076 53.965748l66.48819 0l0 5.322834l-66.48819 0z" fill-rule="evenodd"/><path stroke="#000000" stroke-width="1.0" stroke-linejoin="round" stroke-linecap="butt" d="m172.1076 53.965748l66.48819 0l0 5.322834l-66.48819 0z" fill-rule="evenodd"/><path fill="#000000" d="m250.72572 99.18189l66.488174 0l0 5.32283l-66.488174 0z" fill-rule="evenodd"/><path stroke="#000000" stroke-width="1.0" stroke-linejoin="round" stroke-linecap="butt" d="m250.72572 99.18189l66.488174 0l0 5.32283l-66.488174 0z" fill-rule="evenodd"/><path fill="#000000" d="m180.28215 99.18189l66.48819 0l0 5.32283l-66.48819 0z" fill-rule="evenodd"/><path stroke="#000000" stroke-width="1.0" stroke-linejoin="round" stroke-linecap="butt" d="m180.28215 99.18189l66.48819 0l0 5.32283l-66.48819 0z" fill-rule="evenodd"/><path fill="#000000" d="m27.67323 99.18189l66.48819 0l0 5.32283l-66.48819 0z" fill-rule="evenodd"/><path stroke="#000000" stroke-width="1.0" stroke-linejoin="round" stroke-linecap="butt" d="m27.67323 99.18189l66.48819 0l0 5.32283l-66.48819 0z" fill-rule="evenodd"/><path fill="#000000" d="m103.97769 99.18189l66.48819 0l0 5.32283l-66.48819 0z" fill-rule="evenodd"/><path stroke="#000000" stroke-width="1.0" stroke-linejoin="round" stroke-linecap="butt" d="m103.97769 99.18189l66.48819 0l0 5.32283l-66.48819 0z" fill-rule="evenodd"/><path fill="#000000" d="m122.66798 84.10984l66.4882 0l0 5.322838l-66.4882 0z" fill-rule="evenodd"/><path stroke="#000000" stroke-width="1.0" stroke-linejoin="round" stroke-linecap="butt" d="m122.66798 84.10984l66.4882 0l0 5.322838l-66.4882 0z" fill-rule="evenodd"/><path fill="#000000" d="m197.69423 84.10984l66.488174 0l0 5.322838l-66.488174 0z" fill-rule="evenodd"/><path stroke="#000000" stroke-width="1.0" stroke-linejoin="round" stroke-linecap="butt" d="m197.69423 84.10984l66.488174 0l0 5.322838l-66.488174 0z" fill-rule="evenodd"/><path fill="#000000" d="m47.64173 84.11115l66.48819 0l0 5.322838l-66.48819 0z" fill-rule="evenodd"/><path stroke="#000000" stroke-width="1.0" stroke-linejoin="round" stroke-linecap="butt" d="m47.64173 84.11115l66.48819 0l0 5.322838l-66.48819 0z" fill-rule="evenodd"/><path fill="#000000" d="m21.875328 114.252625l66.48819 0l0 5.322838l-66.48819 0z" fill-rule="evenodd"/><path stroke="#000000" stroke-width="1.0" stroke-linejoin="round" stroke-linecap="butt" d="m21.875328 114.252625l66.48819 0l0 5.322838l-66.48819 0z" fill-rule="evenodd"/><path fill="#000000" d="m92.85696 114.252625l66.48818 0l0 5.322838l-66.48818 0z" fill-rule="evenodd"/><path stroke="#000000" stroke-width="1.0" stroke-linejoin="round" stroke-linecap="butt" d="m92.85696 114.252625l66.48818 0l0 5.322838l-66.48818 0z" fill-rule="evenodd"/><path fill="#000000" d="m166.40552 114.252625l66.48819 0l0 5.322838l-66.48819 0z" fill-rule="evenodd"/><path stroke="#000000" stroke-width="1.0" stroke-linejoin="round" stroke-linecap="butt" d="m166.40552 114.252625l66.48819 0l0 5.322838l-66.48819 0z" fill-rule="evenodd"/><path fill="#000000" d="m239.95407 114.252625l66.48819 0l0 5.322838l-66.48819 0z" fill-rule="evenodd"/><path stroke="#000000" stroke-width="1.0" stroke-linejoin="round" stroke-linecap="butt" d="m239.95407 114.252625l66.48819 0l0 5.322838l-66.48819 0z" fill-rule="evenodd"/></g></svg>